<?xml version="1.0" standalone="no"?>
<!DOCTYPE svg PUBLIC "-//W3C//DTD SVG 20010904//EN"
 "http://www.w3.org/TR/2001/REC-SVG-20010904/DTD/svg10.dtd">
<svg version="1.0" xmlns="http://www.w3.org/2000/svg"
 width="512.000000pt" height="512.000000pt" viewBox="0 0 512.000000 512.000000"
 preserveAspectRatio="xMidYMid meet">
<metadata>
Created by potrace 1.14, written by Peter Selinger 2001-2017
</metadata>
<g transform="translate(0.000000,512.000000) scale(0.100000,-0.100000)"
fill="#000000" stroke="none">
<path d="M2369 5116 c-2 -2 -40 -6 -84 -10 -44 -4 -96 -9 -115 -12 -69 -11
-236 -45 -266 -55 -37 -12 -74 -20 -91 -21 -7 -1 -13 -4 -13 -8 0 -3 -8 -6
-17 -7 -10 -1 -31 -7 -48 -14 -16 -7 -33 -13 -37 -14 -5 -2 -11 -4 -15 -5 -5
-1 -11 -2 -15 -1 -5 0 -8 -3 -8 -9 0 -6 -3 -9 -7 -8 -5 1 -21 -5 -38 -12 -16
-7 -36 -14 -43 -16 -7 -1 -20 -8 -29 -15 -18 -15 -49 -34 -79 -48 -31 -14
-156 -109 -184 -141 -22 -24 -34 -28 -100 -33 -190 -13 -337 -181 -324 -371 2
-30 -1 -46 -9 -47 -74 -5 -144 -36 -192 -83 -20 -20 -32 -36 -28 -36 4 0 -1
-6 -11 -13 -9 -7 -18 -19 -19 -27 -2 -8 -6 -20 -10 -26 -3 -6 -9 -36 -12 -65
-4 -30 -8 -59 -10 -66 -2 -6 1 -14 8 -17 7 -2 7 -5 2 -5 -6 -1 -9 -20 -7 -46
l4 -45 -86 0 c-99 0 -143 -14 -171 -56 -25 -38 -26 -43 -30 -144 -1 -47 -3
-87 -4 -90 0 -3 -23 -16 -49 -28 -86 -41 -155 -131 -199 -260 -32 -94 -39
-252 -17 -353 34 -148 121 -273 225 -321 l45 -21 -1 -86 c-2 -161 37 -202 195
-205 l85 -2 0 -124 c0 -72 4 -128 10 -132 7 -5 7 -8 0 -8 -6 0 -10 -28 -10
-65 0 -37 4 -65 10 -65 7 0 7 -3 0 -8 -5 -4 -10 -20 -10 -37 0 -16 5 -33 10
-37 7 -5 7 -8 0 -8 -5 0 -10 -16 -10 -35 0 -19 5 -35 10 -35 7 0 7 -3 0 -8 -5
-4 -10 -20 -10 -37 0 -16 5 -33 10 -37 7 -5 7 -8 0 -8 -5 0 -10 -16 -10 -35 0
-19 5 -35 10 -35 7 0 7 -3 0 -8 -5 -4 -10 -20 -10 -37 0 -16 5 -33 10 -37 7
-5 7 -8 0 -8 -5 0 -10 -16 -10 -35 0 -19 5 -35 10 -35 7 0 7 -3 0 -8 -5 -4
-10 -20 -10 -37 0 -16 5 -33 10 -37 7 -5 7 -8 0 -8 -6 0 -10 -48 -10 -125 0
-77 4 -125 10 -125 7 0 7 -3 0 -8 -5 -4 -10 -50 -10 -102 l0 -95 -75 -2 c-104
-3 -140 -8 -180 -25 -44 -20 -122 -87 -114 -99 3 -5 1 -9 -4 -9 -10 0 -35 -54
-35 -76 0 -8 -4 -14 -8 -14 -4 0 -6 -89 -5 -197 3 -160 6 -204 19 -229 34 -64
-154 -59 2401 -59 2315 0 2331 0 2358 20 46 33 56 88 53 285 -3 184 -4 192
-23 227 -7 12 -12 27 -12 33 0 13 -65 79 -100 101 -45 29 -94 39 -193 40 l-98
1 3 84 c2 51 -1 84 -7 84 -7 0 -7 3 0 8 6 4 10 56 10 120 0 68 -4 112 -10 112
-7 0 -7 3 0 8 6 4 10 39 10 77 0 39 -4 73 -10 77 -7 5 -7 8 0 8 6 0 10 45 10
115 0 70 -4 115 -10 115 -7 0 -7 3 0 8 11 8 14 232 3 232 -3 0 -4 8 -2 18 9
38 9 142 -1 142 -7 0 -7 3 0 8 6 4 10 52 10 107 l0 100 94 1 c65 0 96 4 99 12
2 7 8 10 13 6 5 -3 12 2 15 10 3 9 9 14 14 11 6 -4 29 33 36 58 1 4 3 10 4 15
2 4 4 41 5 82 1 41 3 81 4 87 0 7 16 19 34 28 58 27 131 87 120 99 -4 3 -2 6
4 6 13 0 46 49 46 67 0 7 4 13 8 13 9 0 36 68 50 128 18 76 20 230 3 303 -33
146 -119 272 -219 324 l-49 26 -2 89 c-2 158 -34 192 -187 198 -54 3 -96 7
-93 10 3 3 1 11 -5 19 -6 7 -8 13 -3 13 5 0 9 23 9 50 0 28 -2 50 -5 50 -3 0
-4 15 -4 32 1 18 -4 39 -10 47 -6 8 -10 15 -8 15 9 2 -11 56 -21 56 -6 0 -8 3
-4 6 10 10 -75 86 -118 105 -35 16 -75 26 -111 28 -8 1 -11 20 -10 54 9 202
-144 361 -356 369 -36 1 -50 8 -86 44 -44 44 -202 154 -221 154 -6 0 -11 5
-11 11 0 5 -4 7 -10 4 -5 -3 -10 -1 -10 4 0 6 -6 11 -12 11 -7 0 -25 6 -39 14
-116 60 -420 143 -594 162 -33 3 -73 8 -90 11 -36 6 -460 14 -466 9z"/>
</g>
</svg>
